<mxfile host="app.diagrams.net" modified="2020-10-07T10:06:31.397Z" agent="5.0 (Windows)" etag="pm9tySwAKPvFcXqizi4x" version="13.7.7" type="github">
  <diagram id="fW9NUbcDmhiTU7LCMh35" name="Page-1">
    <mxGraphModel dx="910" dy="487" grid="1" gridSize="10" guides="1" tooltips="1" connect="1" arrows="1" fold="1" page="1" pageScale="1" pageWidth="1169" pageHeight="827" math="0" shadow="0">
      <root>
        <mxCell id="0" />
        <mxCell id="1" parent="0" />
        <mxCell id="_9EXCAQElDtnFlGvw9H9-1" value="Committee Letter for Summons" style="swimlane;html=1;childLayout=stackLayout;resizeParent=1;resizeParentMax=0;horizontal=1;startSize=20;horizontalStack=0;" vertex="1" parent="1">
          <mxGeometry x="10" y="10" width="1150" height="720" as="geometry" />
        </mxCell>
        <mxCell id="_9EXCAQElDtnFlGvw9H9-2" value="Clerk Assistant" style="swimlane;html=1;startSize=20;horizontal=0;" vertex="1" parent="_9EXCAQElDtnFlGvw9H9-1">
          <mxGeometry y="20" width="1150" height="220" as="geometry" />
        </mxCell>
        <mxCell id="_9EXCAQElDtnFlGvw9H9-16" value="Start" style="rounded=1;whiteSpace=wrap;html=1;" vertex="1" parent="_9EXCAQElDtnFlGvw9H9-2">
          <mxGeometry x="140" y="20" width="100" height="50" as="geometry" />
        </mxCell>
        <mxCell id="_9EXCAQElDtnFlGvw9H9-19" value="Resolution by Committee to summon" style="rounded=0;whiteSpace=wrap;html=1;" vertex="1" parent="_9EXCAQElDtnFlGvw9H9-2">
          <mxGeometry x="130" y="150" width="120" height="60" as="geometry" />
        </mxCell>
        <mxCell id="_9EXCAQElDtnFlGvw9H9-18" value="" style="edgeStyle=orthogonalEdgeStyle;rounded=0;orthogonalLoop=1;jettySize=auto;html=1;entryX=0.5;entryY=0;entryDx=0;entryDy=0;" edge="1" parent="_9EXCAQElDtnFlGvw9H9-2" source="_9EXCAQElDtnFlGvw9H9-16" target="_9EXCAQElDtnFlGvw9H9-19">
          <mxGeometry relative="1" as="geometry">
            <mxPoint x="190" y="145" as="targetPoint" />
          </mxGeometry>
        </mxCell>
        <mxCell id="_9EXCAQElDtnFlGvw9H9-3" value="Clerk" style="swimlane;html=1;startSize=20;horizontal=0;" vertex="1" parent="_9EXCAQElDtnFlGvw9H9-1">
          <mxGeometry y="240" width="1150" height="120" as="geometry" />
        </mxCell>
        <mxCell id="_9EXCAQElDtnFlGvw9H9-4" value="Speaker" style="swimlane;html=1;startSize=20;horizontal=0;" vertex="1" parent="_9EXCAQElDtnFlGvw9H9-1">
          <mxGeometry y="360" width="1150" height="120" as="geometry" />
        </mxCell>
        <mxCell id="_9EXCAQElDtnFlGvw9H9-9" value="Table Office" style="swimlane;html=1;startSize=20;horizontal=0;" vertex="1" parent="_9EXCAQElDtnFlGvw9H9-1">
          <mxGeometry y="480" width="1150" height="120" as="geometry" />
        </mxCell>
        <mxCell id="_9EXCAQElDtnFlGvw9H9-15" value="&lt;div&gt;Records Office/ &lt;br&gt;&lt;/div&gt;&lt;div&gt;Sergent at arms&lt;/div&gt;" style="swimlane;html=1;startSize=40;horizontal=0;" vertex="1" parent="_9EXCAQElDtnFlGvw9H9-1">
          <mxGeometry y="600" width="1150" height="120" as="geometry" />
        </mxCell>
        <mxCell id="_9EXCAQElDtnFlGvw9H9-20" value="Filling of Accountability form" style="whiteSpace=wrap;html=1;rounded=0;" vertex="1" parent="1">
          <mxGeometry x="340" y="180" width="120" height="60" as="geometry" />
        </mxCell>
        <mxCell id="_9EXCAQElDtnFlGvw9H9-21" value="" style="edgeStyle=orthogonalEdgeStyle;rounded=0;orthogonalLoop=1;jettySize=auto;html=1;" edge="1" parent="1" source="_9EXCAQElDtnFlGvw9H9-19" target="_9EXCAQElDtnFlGvw9H9-20">
          <mxGeometry relative="1" as="geometry" />
        </mxCell>
      </root>
    </mxGraphModel>
  </diagram>
</mxfile>
